<svg version="1.1" id="Layer_1" xmlns="http://www.w3.org/2000/svg" xmlns:xlink="http://www.w3.org/1999/xlink" x="0px" y="0px"
	 width="100%" viewBox="0 0 816 672" enable-background="new 0 0 816 672" xml:space="preserve">
<path fill="#000000" opacity="1.000000" stroke="none" 
	d="
M423.062988,664.226746 
	C372.574432,660.913940 335.289856,637.390381 310.791107,593.716919 
	C308.910248,590.363953 307.234070,588.736511 303.048065,589.696655 
	C266.877289,597.993286 230.670609,606.134705 194.453156,614.226196 
	C177.890656,617.926575 161.401993,621.979553 144.641815,624.762756 
	C128.953659,627.367981 118.517357,622.386475 112.372032,607.808350 
	C99.413620,577.068176 84.445869,547.347290 68.586845,518.030945 
	C61.108459,504.206726 62.808334,494.752533 75.058540,484.336487 
	C104.628258,459.194183 134.491623,434.397400 164.220169,409.441742 
	C205.048340,375.168427 245.891647,340.913055 286.673340,306.584503 
	C340.838501,260.990265 394.962402,215.346954 449.080383,169.696716 
	C476.203430,146.817581 503.272522,123.874420 530.370972,100.966118 
	C533.425293,98.384102 536.486633,95.817551 540.212280,94.191071 
	C545.965759,91.679306 549.936157,92.616287 553.802795,97.658279 
	C556.968323,101.786110 558.975586,106.582634 561.279297,111.198036 
	C594.898499,178.552185 628.401855,245.964417 662.145447,313.256134 
	C687.304443,363.428406 712.779114,413.442352 738.084534,463.541290 
	C740.634949,468.590515 743.213257,473.657074 743.453735,479.506744 
	C743.699341,485.481659 741.742249,488.902954 736.157654,491.255554 
	C726.103027,495.491119 715.284180,496.836578 704.741394,499.175934 
	C663.641052,508.295532 622.510681,517.280029 581.390320,526.309265 
	C578.629395,526.915466 575.825378,527.352417 573.098267,528.080811 
	C563.284119,530.702026 564.663452,529.392212 564.250916,539.201294 
	C563.035767,568.099548 553.841553,594.102356 534.708496,615.986938 
	C505.363342,649.552307 467.924164,665.014526 423.062988,664.226746 
M367.953094,603.527710 
	C401.597961,632.846313 455.610321,631.797180 490.643188,604.633484 
	C509.562469,589.963928 520.843933,570.789368 524.514709,547.142151 
	C525.532654,540.584290 524.461731,539.489746 518.128235,540.854919 
	C509.998932,542.607117 501.905365,544.525085 493.795471,546.367371 
	C468.802612,552.044922 443.805359,557.703125 418.817352,563.401978 
	C397.241577,568.322571 375.663696,573.235352 354.115509,578.274658 
	C349.205383,579.422913 348.580322,581.203918 351.449860,585.264160 
	C356.073792,591.806763 361.091248,598.030823 367.953094,603.527710 
z"/>
<path fill="#000000" opacity="1.000000" stroke="none" 
	d="
M708.500732,270.586792 
	C740.009644,334.369934 771.377808,397.806946 802.637756,461.297211 
	C805.276245,466.656036 807.265503,472.342529 809.423096,477.928253 
	C812.942139,487.038086 804.520874,497.486359 794.793274,496.093964 
	C789.273621,495.303925 784.787598,492.788177 781.525146,488.092834 
	C777.502502,482.303406 774.838135,475.813110 771.724243,469.565033 
	C741.123718,408.165009 710.521362,346.765656 680.073364,285.289886 
	C646.745483,217.999542 613.592407,150.622650 580.322388,83.303627 
	C577.372864,77.335403 573.922119,71.611526 571.055420,65.606476 
	C565.866638,54.737232 568.935181,47.312347 580.083069,43.018520 
	C587.810425,40.042183 594.366821,41.955376 598.873474,49.667946 
	C603.482300,57.555241 607.245117,65.940674 611.305359,74.144150 
	C643.657227,139.509460 675.991760,204.883362 708.500732,270.586792 
z"/>
<path fill="#000000" opacity="1.000000" stroke="none" 
	d="
M38.063580,592.827026 
	C29.659658,574.669739 21.379793,556.869080 13.211931,539.017273 
	C9.788449,531.534790 10.997269,524.781860 16.350910,519.782104 
	C22.888023,513.677124 33.014713,514.710205 38.139477,522.053467 
	C45.619366,532.771484 50.252357,544.976501 55.951427,556.611084 
	C67.366539,579.914978 78.473602,603.369873 89.679581,626.775940 
	C91.258156,630.073181 92.721825,633.408630 93.489998,637.039001 
	C95.294937,645.568970 92.370346,651.385498 84.209732,655.117188 
	C76.807114,658.502197 70.603500,656.851318 65.497932,649.766479 
	C59.610657,641.596863 56.464256,632.000000 52.101551,623.040649 
	C47.295422,613.170654 42.840683,603.129578 38.063580,592.827026 
z"/>
</svg>